<svg xmlns="http://www.w3.org/2000/svg" viewBox="0 0 100 100">
  <!-- Body -->
  <line x1="50" y1="35" x2="50" y2="70" stroke="black" stroke-width="2" stroke-linecap="round"/>
  <!-- Head -->
  <circle cx="50" cy="25" r="10" fill="none" stroke="black" stroke-width="2"/>
  
  <!-- Arms Shrugging -->
  <path d="M50 45 Q30 45 25 30" fill="none" stroke="black" stroke-width="2" stroke-linecap="round"/>
  <path d="M50 45 Q70 45 75 30" fill="none" stroke="black" stroke-width="2" stroke-linecap="round"/>
  
  <!-- Palms up -->
  <path d="M23 30 Q25 28 27 30" fill="none" stroke="black" stroke-width="2" stroke-linecap="round"/>
  <path d="M73 30 Q75 28 77 30" fill="none" stroke="black" stroke-width="2" stroke-linecap="round"/>

  <!-- Legs -->
  <path d="M50 70 L40 90" fill="none" stroke="black" stroke-width="2" stroke-linecap="round"/>
  <path d="M50 70 L60 90" fill="none" stroke="black" stroke-width="2" stroke-linecap="round"/>

  <!-- Face Confused -->
  <circle cx="45" cy="23" r="1" fill="black"/>
  <circle cx="55" cy="23" r="1" fill="black"/>
  <line x1="47" y1="30" x2="53" y2="30" stroke="black" stroke-width="1.5" stroke-linecap="round"/>
  
  <!-- Question Marks -->
  <path d="M30 15 Q35 10 35 15 Q35 20 32 22 M32 25 L32 26" stroke="#94a3b8" stroke-width="2" fill="none"/>
  <path d="M70 15 Q75 10 75 15 Q75 20 72 22 M72 25 L72 26" stroke="#94a3b8" stroke-width="2" fill="none"/>
</svg>
