<svg viewBox="0 0 100 150" xmlns="http://www.w3.org/2000/svg">
  <path d="M30 25 c0 -15 40 -15 40 0 c0 15 -10 20 -20 20 s-20 -5 -20 -20 Z" fill="none" stroke="currentColor" stroke-width="3.5" stroke-linecap="round" />
  <path d="M50 38 c-10 0 -17 -7 -17 -17 s7 -17 17 -17 s17 7 17 17 s-7 17 -17 17 Z" fill="none" stroke="currentColor" stroke-width="4" stroke-linecap="round" />
  <path d="M50 42 l-15 45 l30 0 Z" fill="none" stroke="currentColor" stroke-width="4" stroke-linecap="round" stroke-linejoin="round" />
  <path d="M25 60 c10 -5 25 -5 50 0" fill="none" stroke="currentColor" stroke-width="4" stroke-linecap="round" />
  <path d="M42 87 l-10 38" fill="none" stroke="currentColor" stroke-width="4" stroke-linecap="round" />
  <path d="M58 87 l10 38" fill="none" stroke="currentColor" stroke-width="4" stroke-linecap="round" />
</svg>
