<svg viewBox="0 0 100 150" xmlns="http://www.w3.org/2000/svg">
  <!-- Hair -->
  <path d="M30 15 c0 -15 40 -15 40 0 c0 15 -10 20 -20 20 s-20 -5 -20 -20 Z" fill="none" stroke="currentColor" stroke-width="3.5" stroke-linecap="round" />
  <!-- Head -->
  <path d="M50 28 c-10 0 -17 -7 -17 -17 s7 -17 17 -17 s17 7 17 17 s-7 17 -17 17 Z" fill="none" stroke="currentColor" stroke-width="4" stroke-linecap="round" />
  <!-- Body -->
  <path d="M50 32 l-15 45 l30 0 Z" fill="none" stroke="currentColor" stroke-width="4" stroke-linecap="round" stroke-linejoin="round" />
  <!-- Jumping Arms with hands -->
  <path d="M30 45 c-10 -10 -15 -25 -5 -35" fill="none" stroke="currentColor" stroke-width="4" stroke-linecap="round" />
  <circle cx="25" cy="10" r="2.5" fill="currentColor" /> <!-- Hand 1 -->
  <path d="M70 45 c10 -10 15 -25 5 -35" fill="none" stroke="currentColor" stroke-width="4" stroke-linecap="round" />
  <circle cx="75" cy="10" r="2.5" fill="currentColor" /> <!-- Hand 2 -->
  <!-- Jumping Legs -->
  <path d="M35 77 l-10 30 l-5 -5 M65 77 l10 30 l5 -5" fill="none" stroke="currentColor" stroke-width="4" stroke-linecap="round" stroke-linejoin="round" />
</svg>
