<svg viewBox="0 0 100 150" xmlns="http://www.w3.org/2000/svg">
  <!-- Hair -->
  <path d="M30 25 c0 -15 40 -15 40 0 c0 15 -10 20 -20 20 s-20 -5 -20 -20 Z" fill="none" stroke="currentColor" stroke-width="3.5" stroke-linecap="round" />
  <!-- Head -->
  <path d="M50 38 c-10 0 -17 -7 -17 -17 s7 -17 17 -17 s17 7 17 17 s-7 17 -17 17 Z" fill="none" stroke="currentColor" stroke-width="4" stroke-linecap="round" />
  <!-- Body (Moving Right) -->
  <path d="M50 42 l-12 45 l24 0 Z" fill="none" stroke="currentColor" stroke-width="4" stroke-linecap="round" stroke-linejoin="round" />
  <!-- Arms with hands -->
  <path d="M42 60 c-10 5 -15 15 -10 30" fill="none" stroke="currentColor" stroke-width="4" stroke-linecap="round" />
  <circle cx="32" cy="90" r="2.5" fill="currentColor" /> <!-- Hand 1 -->
  <path d="M58 60 c10 10 25 25 15 40" fill="none" stroke="currentColor" stroke-width="4" stroke-linecap="round" />
  <circle cx="73" cy="100" r="2.5" fill="currentColor" /> <!-- Hand 2 -->
  <!-- Walking Legs (Rightward) -->
  <path d="M42 87 l5 38" fill="none" stroke="currentColor" stroke-width="4" stroke-linecap="round" />
  <path d="M58 87 l18 30 l-12 12" fill="none" stroke="currentColor" stroke-width="4" stroke-linecap="round" stroke-linejoin="round" />
</svg>
