<svg width="512" height="512" viewBox="0 0 512 512" xmlns="http://www.w3.org/2000/svg">
  <defs>
    <linearGradient id="boxInside" x1="0%" y1="0%" x2="0%" y2="100%">
      <stop offset="0%" style="stop-color:#2a1d15;stop-opacity:1" />
      <stop offset="100%" style="stop-color:#3d2b1f;stop-opacity:1" />
    </linearGradient>
    <filter id="boxDepth">
      <feDropShadow dx="0" dy="4" stdDeviation="4" flood-opacity="0.5"/>
    </filter>
  </defs>

  <!-- Professional Card Stack Approach -->
  <!-- Bottom Card (Teal Dark) -->
  <rect x="120" y="80" width="300" height="400" rx="40" fill="#064e3b" transform="rotate(-10, 256, 280)"/>
  
  <!-- Middle Card (Teal Medium) -->
  <rect x="100" y="60" width="300" height="400" rx="40" fill="#0d9488" transform="rotate(-5, 256, 260)"/>
  
  <!-- Top Card (White) -->
  <rect x="80" y="40" width="300" height="400" rx="40" fill="#ffffff" stroke="#0d9488" stroke-width="8"/>
  
  <!-- The Two Realistic Sorting Boxes (Staggered Layout) -->
  <g transform="translate(100, 60)">
    <!-- Box 1 (Top Left-ish) -->
    <g filter="url(#boxDepth)">
      <rect x="10" y="5" width="110" height="60" rx="10" fill="#3d2b1f"/>
      <rect x="20" y="10" width="90" height="40" rx="5" fill="url(#boxInside)"/>
    </g>
    
    <!-- Box 2 (Bottom Right-ish) -->
    <g transform="translate(140, 70)" filter="url(#boxDepth)">
      <rect x="0" y="5" width="110" height="60" rx="10" fill="#3d2b1f"/>
      <rect x="10" y="10" width="90" height="40" rx="5" fill="url(#boxInside)"/>
    </g>
  </g>

  <!-- "Empty Stickman" Asset - Enlarged Portrait Version (Moved Down and Left) -->
  <g transform="translate(40, 210) scale(4)">
    <!-- Body (Cut halfway) -->
    <line x1="50" y1="35" x2="50" y2="55" stroke="black" stroke-width="3" stroke-linecap="round"/>
    <!-- Head -->
    <circle cx="50" cy="25" r="10" fill="none" stroke="black" stroke-width="3"/>
    
    <!-- Arms Shrugging -->
    <path d="M50 45 Q30 45 25 30" fill="none" stroke="black" stroke-width="3" stroke-linecap="round"/>
    <path d="M50 45 Q70 45 75 30" fill="none" stroke="black" stroke-width="3" stroke-linecap="round"/>
    
    <!-- Palms up -->
    <path d="M23 30 Q25 28 27 30" fill="none" stroke="black" stroke-width="3" stroke-linecap="round"/>
    <path d="M73 30 Q75 28 77 30" fill="none" stroke="black" stroke-width="3" stroke-linecap="round"/>

    <!-- Face Confused -->
    <circle cx="45" cy="23" r="1.5" fill="black"/>
    <circle cx="55" cy="23" r="1.5" fill="black"/>
    <line x1="47" y1="30" x2="53" y2="30" stroke="black" stroke-width="2" stroke-linecap="round"/>
    
    <!-- Question Marks (Orange Accent) -->
    <path d="M30 15 Q35 10 35 15 Q35 20 32 22 M32 25 L32 26" stroke="#fbbf24" stroke-width="3" fill="none"/>
    <path d="M70 15 Q75 10 75 15 Q75 20 72 22 M72 25 L72 26" stroke="#fbbf24" stroke-width="3" fill="none"/>
  </g>
</svg>
