<svg viewBox="0 0 100 150" xmlns="http://www.w3.org/2000/svg">
  <!-- Head -->
  <path d="M50 40 c-9 0 -17 -8 -17 -18 s8 -18 17 -18 s17 8 17 18 s-8 18 -17 18 Z" fill="none" stroke="currentColor" stroke-width="4" stroke-linecap="round" />
  <!-- Body (Hunched) -->
  <path d="M50 40 c-5 15 -10 30 -5 55" fill="none" stroke="currentColor" stroke-width="4" stroke-linecap="round" />
  <!-- Arms (Clutching body for warmth/stress) -->
  <path d="M45 50 c-15 10 -15 25 -5 35" fill="none" stroke="currentColor" stroke-width="4" stroke-linecap="round" />
  <circle cx="42" cy="85" r="3" fill="currentColor" />
  <path d="M55 50 c15 10 15 25 5 35" fill="none" stroke="currentColor" stroke-width="4" stroke-linecap="round" />
  <circle cx="58" cy="85" r="3" fill="currentColor" />
  <!-- Legs (Shivering) -->
  <path d="M45 95 l-10 35 M35 130 l-5 5" fill="none" stroke="currentColor" stroke-width="4" stroke-linecap="round" />
  <path d="M52 95 l8 35 M60 130 l5 5" fill="none" stroke="currentColor" stroke-width="4" stroke-linecap="round" />
  <!-- Rain drops around him? No, keep it focus on the stickman -->
</svg>
