<svg width="100" height="125" viewBox="0 0 100 125" xmlns="http://www.w3.org/2000/svg">
  <!-- Stranger NPC on the Bridge with Clothing -->
  
  <!-- Hoodie Body -->
  <path d="M35 40 Q50 35 65 40 L70 75 Q50 80 30 75 Z" fill="#334155" stroke="#1e293b" stroke-width="1.5"/>
  
  <!-- Hoodie Hood (Down) -->
  <path d="M40 35 Q50 20 60 35" fill="none" stroke="#1e293b" stroke-width="2" stroke-linecap="round"/>
  
  <!-- Head -->
  <circle cx="50" cy="25" r="10" stroke="#000" stroke-width="2.5" fill="white"/>
  
  <!-- Arms (Hoodie Sleeves) -->
  <path d="M38 45 L25 65" stroke="#334155" stroke-width="6" stroke-linecap="round"/>
  <path d="M62 45 L75 65" stroke="#334155" stroke-width="6" stroke-linecap="round"/>
  
  <!-- Hands -->
  <circle cx="25" cy="65" r="3" fill="white" stroke="#000" stroke-width="1"/>
  <circle cx="75" cy="65" r="3" fill="white" stroke="#000" stroke-width="1"/>

  <!-- Pants -->
  <path d="M35 75 L30 115 L45 115 L50 90 L55 115 L70 115 L65 75 Z" fill="#1e293b" stroke="#0f172a" stroke-width="1"/>
  
  <!-- Shoes -->
  <rect x="28" y="115" width="18" height="6" rx="2" fill="#000"/>
  <rect x="54" y="115" width="18" height="6" rx="2" fill="#000"/>
</svg>
